<svg id="Layer_3" enable-background="new 0 0 64 64" height="512" viewBox="0 0 64 64" width="512" xmlns="http://www.w3.org/2000/svg"><g><path d="m58 5h-52c-2.757 0-5 2.243-5 5v34c0 2.757 2.243 5 5 5h21.613l-1.333 4h-10.28c-1.654 0-3 1.346-3 3v2c0 .553.447 1 1 1h36c.553 0 1-.447 1-1v-2c0-1.654-1.346-3-3-3h-10.28l-1.333-4h21.613c2.757 0 5-2.243 5-5v-34c0-2.757-2.243-5-5-5zm-9 51v1h-34v-1c0-.552.448-1 1-1h32c.552 0 1 .448 1 1zm-13.387-3h-7.226l1.333-4h4.559zm25.387-9c0 1.654-1.346 3-3 3h-52c-1.654 0-3-1.346-3-3v-34c0-1.654 1.346-3 3-3h52c1.654 0 3 1.346 3 3z"/><path d="m37 14c0-2.757-2.243-5-5-5s-5 2.243-5 5 2.243 5 5 5 5-2.243 5-5zm-5 3c-1.654 0-3-1.346-3-3s1.346-3 3-3 3 1.346 3 3-1.346 3-3 3z"/><path d="m26 27h12c.553 0 1-.447 1-1v-4c0-1.654-1.346-3-3-3h-4-4c-1.654 0-3 1.346-3 3v4c0 .553.447 1 1 1zm1-5c0-.552.448-1 1-1h8c.552 0 1 .448 1 1v3h-1v-2h-2v2h-4v-2h-2v2h-1z"/><path d="m16 29h-4c-.553 0-1 .447-1 1v4c0 .553.447 1 1 1h4c.553 0 1-.447 1-1v-4c0-.553-.447-1-1-1zm-1 4h-2v-2h2z"/><path d="m16 37h-4c-.553 0-1 .447-1 1v4c0 .553.447 1 1 1h4c.553 0 1-.447 1-1v-4c0-.553-.447-1-1-1zm-1 4h-2v-2h2z"/><path d="m19 33h2v2h-2z"/><path d="m23 33h29v2h-29z"/><path d="m23.293 37.293-1.293 1.293-1.293-1.293-1.414 1.414 1.293 1.293-1.293 1.293 1.414 1.414 1.293-1.293 1.293 1.293 1.414-1.414-1.293-1.293 1.293-1.293z"/><path d="m30.293 37.293-1.293 1.293-1.293-1.293-1.414 1.414 1.293 1.293-1.293 1.293 1.414 1.414 1.293-1.293 1.293 1.293 1.414-1.414-1.293-1.293 1.293-1.293z"/><path d="m37.293 37.293-1.293 1.293-1.293-1.293-1.414 1.414 1.293 1.293-1.293 1.293 1.414 1.414 1.293-1.293 1.293 1.293 1.414-1.414-1.293-1.293 1.293-1.293z"/><path d="m44.293 37.293-1.293 1.293-1.293-1.293-1.414 1.414 1.293 1.293-1.293 1.293 1.414 1.414 1.293-1.293 1.293 1.293 1.414-1.414-1.293-1.293 1.293-1.293z"/><path d="m44 27c.334 0 .646-.167.832-.445l4-6-1.664-1.109-3.168 4.751-1.168-1.752-1.664 1.109 2 3c.186.279.498.446.832.446z"/></g></svg>