<svg id="Capa_1" enable-background="new 0 0 512 512" height="512" viewBox="0 0 512 512" width="512" xmlns="http://www.w3.org/2000/svg"><g><path d="m407 357c-31.706 0-57.5-25.794-57.5-57.5s25.794-57.5 57.5-57.5 57.5 25.794 57.5 57.5-25.794 57.5-57.5 57.5z"/><path d="m105 357c-31.706 0-57.5-25.794-57.5-57.5s25.794-57.5 57.5-57.5 57.5 25.794 57.5 57.5-25.794 57.5-57.5 57.5z"/><path d="m356 40c-18.955 0-35.996-10.532-44.472-27.484l-2.111-4.223c-2.541-5.083-7.735-8.293-13.417-8.293h-80c-5.682 0-10.876 3.21-13.417 8.292l-2.111 4.222c-8.476 16.954-25.517 27.486-44.472 27.486-8.284 0-15 6.716-15 15v85.597c0 33.654 10.619 65.715 30.708 92.716 20.089 27 47.747 46.384 79.982 56.054 1.406.422 2.858.633 4.31.633s2.904-.211 4.31-.633c32.235-9.67 59.893-29.054 79.982-56.054 20.089-27.001 30.708-59.062 30.708-92.716v-85.597c0-8.284-6.716-15-15-15zm-46.967 87.322-56.568 56.568c-2.929 2.929-6.768 4.394-10.606 4.394s-7.678-1.464-10.606-4.394l-28.284-28.284c-5.858-5.858-5.858-15.355 0-21.213 5.857-5.858 15.355-5.858 21.213 0l17.678 17.677 45.962-45.961c5.857-5.858 15.355-5.858 21.213 0 5.856 5.858 5.856 15.355-.002 21.213z"/><g><g><path d="m468.34 361.834c-15.803 15.553-37.468 25.166-61.34 25.166-23.91 0-45.607-9.643-61.416-25.241-8.392 6.046-15.861 13.297-22.136 21.524l8.242 7.219c24.982 21.881 39.31 53.408 39.31 86.498v35h126c8.284 0 15-6.716 15-15v-50c0-35.016-17.233-66.079-43.66-85.166z"/><path d="m43.66 361.834c-26.427 19.087-43.66 50.15-43.66 85.166v50c0 8.284 6.716 15 15 15h126v-35c0-33.09 14.328-64.617 39.31-86.498l8.242-7.219c-6.275-8.227-13.744-15.478-22.136-21.524-15.809 15.598-37.506 25.241-61.416 25.241-23.872 0-45.537-9.613-61.34-25.166z"/></g><path d="m311.924 413.07c-14.116 14.73-33.96 23.93-55.924 23.93s-41.808-9.2-55.924-23.93c-17.802 15.592-29.076 38.462-29.076 63.93v35h170v-35c0-25.468-11.274-48.338-29.076-63.93z"/></g><path d="m256 407c-26.192 0-47.5-21.308-47.5-47.5s21.308-47.5 47.5-47.5 47.5 21.308 47.5 47.5-21.308 47.5-47.5 47.5z"/></g></svg>